<mxfile host="app.diagrams.net" agent="Mozilla/5.0 (Windows NT 10.0; Win64; x64) AppleWebKit/537.36 (KHTML, like Gecko) Chrome/140.0.0.0 Safari/537.36 Edg/140.0.0.0" version="28.2.0">
  <diagram name="MSAFF Framework" id="msaff-complete-architecture">
    <mxGraphModel dx="994" dy="540" grid="1" gridSize="10" guides="1" tooltips="1" connect="1" arrows="1" fold="1" page="1" pageScale="1" pageWidth="1000" pageHeight="1400" math="0" shadow="0">
      <root>
        <mxCell id="0" />
        <mxCell id="1" parent="0" />
        <mxCell id="input" value="Input Document Image" style="rounded=1;whiteSpace=wrap;html=1;strokeWidth=2;fontStyle=1;fontSize=12;spacingTop=2;" parent="1" vertex="1">
          <mxGeometry x="400" y="50" width="200" height="40" as="geometry" />
        </mxCell>
        <mxCell id="arrow1" style="edgeStyle=orthogonalEdgeStyle;rounded=0;orthogonalLoop=1;jettySize=auto;html=1;strokeWidth=2;spacingTop=2;" parent="1" source="input" target="tier1" edge="1">
          <mxGeometry relative="1" as="geometry" />
        </mxCell>
        <mxCell id="tier1" value="TIER 1: PREPROCESSING" style="rounded=1;whiteSpace=wrap;html=1;strokeWidth=3;verticalAlign=top;spacingTop=2;imageAspect=0;fontSize=14;fontStyle=1" parent="1" vertex="1">
          <mxGeometry x="200" y="120" width="600" height="120" as="geometry" />
        </mxCell>
        <mxCell id="doc-enhance" value="&lt;b&gt;Document Enhancement&lt;/b&gt;&lt;br&gt;Quality Issue Handling" style="rounded=1;whiteSpace=wrap;html=1;fontSize=10;spacingTop=2;" parent="1" vertex="1">
          <mxGeometry x="240" y="150" width="150" height="35" as="geometry" />
        </mxCell>
        <mxCell id="binarization" value="&lt;b&gt;Sauvola&#39;s Adaptive&lt;/b&gt;&lt;br&gt;Thresholding (94% accuracy)" style="rounded=1;whiteSpace=wrap;html=1;fontSize=10;spacingTop=2;" parent="1" vertex="1">
          <mxGeometry x="430" y="150" width="150" height="35" as="geometry" />
        </mxCell>
        <mxCell id="skew" value="&lt;b&gt;Hough Transform&lt;/b&gt;&lt;br&gt;Skew Correction (±15°)" style="rounded=1;whiteSpace=wrap;html=1;fontSize=10;spacingTop=2;" parent="1" vertex="1">
          <mxGeometry x="620" y="150" width="150" height="35" as="geometry" />
        </mxCell>
        <mxCell id="seg-engine" value="&lt;b&gt;Connected Component Analysis&lt;/b&gt;&lt;br&gt;with Script-aware Heuristics" style="rounded=1;whiteSpace=wrap;html=1;fontSize=10;spacingTop=2;" parent="1" vertex="1">
          <mxGeometry x="345" y="200" width="300" height="35" as="geometry" />
        </mxCell>
        <mxCell id="arrow2" style="edgeStyle=orthogonalEdgeStyle;rounded=0;orthogonalLoop=1;jettySize=auto;html=1;strokeWidth=2;spacingTop=2;" parent="1" source="tier1" target="segmentation" edge="1">
          <mxGeometry relative="1" as="geometry" />
        </mxCell>
        <mxCell id="segmentation" value="SEGMENTATION INTO FIVE GRANULARITY LEVELS" style="rounded=1;whiteSpace=wrap;html=1;strokeWidth=3;verticalAlign=top;spacingTop=2;fontSize=14;fontStyle=1;spacingBottom=0;" parent="1" vertex="1">
          <mxGeometry x="150" y="290" width="700" height="120" as="geometry" />
        </mxCell>
        <mxCell id="blocks" value="BLOCKS" style="rounded=1;whiteSpace=wrap;html=1;fontSize=10;spacingTop=2;" parent="1" vertex="1">
          <mxGeometry x="170" y="325" width="100" height="30" as="geometry" />
        </mxCell>
        <mxCell id="lines" value="LINES" style="rounded=1;whiteSpace=wrap;html=1;fontSize=10;spacingTop=2;" parent="1" vertex="1">
          <mxGeometry x="290" y="325" width="100" height="30" as="geometry" />
        </mxCell>
        <mxCell id="words" value="WORDS" style="rounded=1;whiteSpace=wrap;html=1;fontSize=10;spacingTop=2;" parent="1" vertex="1">
          <mxGeometry x="410" y="325" width="100" height="30" as="geometry" />
        </mxCell>
        <mxCell id="numerals" value="NUMERALS" style="rounded=1;whiteSpace=wrap;html=1;fontSize=10;spacingTop=2;" parent="1" vertex="1">
          <mxGeometry x="530" y="325" width="100" height="30" as="geometry" />
        </mxCell>
        <mxCell id="alphanumeric" value="ALPHANUMERIC&lt;br&gt;CHARACTERS" style="rounded=1;whiteSpace=wrap;html=1;fontSize=9;spacingTop=2;" parent="1" vertex="1">
          <mxGeometry x="650" y="325" width="120" height="30" as="geometry" />
        </mxCell>
        <mxCell id="text-region" value="Text Region Identification at Multiple Granularity Levels" style="rounded=1;whiteSpace=wrap;html=1;fontSize=10;spacingTop=2;" parent="1" vertex="1">
          <mxGeometry x="300" y="370" width="400" height="25" as="geometry" />
        </mxCell>
        <mxCell id="arrow3" style="edgeStyle=orthogonalEdgeStyle;rounded=0;orthogonalLoop=1;jettySize=auto;html=1;strokeWidth=2;spacingTop=2;" parent="1" source="segmentation" target="tier2" edge="1">
          <mxGeometry relative="1" as="geometry" />
        </mxCell>
        <mxCell id="tier2" value="TIER 2: ADAPTIVE FEATURE EXTRACTION" style="rounded=1;whiteSpace=wrap;html=1;strokeWidth=3;fontSize=14;fontStyle=1;verticalAlign=top;spacingTop=2;" parent="1" vertex="1">
          <mxGeometry x="100" y="440" width="800" height="220" as="geometry" />
        </mxCell>
        <mxCell id="block-features" value="&lt;b&gt;BLOCK LEVEL&lt;/b&gt;&lt;br&gt;Local Binary Patterns&lt;br&gt;Stroke Density&lt;br&gt;Histograms" style="rounded=1;whiteSpace=wrap;html=1;fontSize=8;spacingTop=2;" parent="1" vertex="1">
          <mxGeometry x="120" y="480" width="140" height="50" as="geometry" />
        </mxCell>
        <mxCell id="line-features" value="&lt;b&gt;LINE LEVEL&lt;/b&gt;&lt;br&gt;Horizontal Projection&lt;br&gt;Profiles&lt;br&gt;Connected Components" style="rounded=1;whiteSpace=wrap;html=1;fontSize=8;spacingTop=2;" parent="1" vertex="1">
          <mxGeometry x="280" y="480" width="140" height="50" as="geometry" />
        </mxCell>
        <mxCell id="word-features" value="&lt;b&gt;WORD LEVEL&lt;/b&gt;&lt;br&gt;Histogram of Oriented&lt;br&gt;Gradients (HOG)&lt;br&gt;Zoning Features" style="rounded=1;whiteSpace=wrap;html=1;fontSize=8;spacingTop=2;" parent="1" vertex="1">
          <mxGeometry x="440" y="480" width="140" height="50" as="geometry" />
        </mxCell>
        <mxCell id="numeral-features" value="&lt;b&gt;NUMERAL LEVEL&lt;/b&gt;&lt;br&gt;Contour Analysis&lt;br&gt;Geometric&lt;br&gt;Descriptors" style="rounded=1;whiteSpace=wrap;html=1;fontSize=8;spacingTop=2;" parent="1" vertex="1">
          <mxGeometry x="600" y="480" width="140" height="50" as="geometry" />
        </mxCell>
        <mxCell id="char-features" value="&lt;b&gt;CHARACTER&lt;/b&gt;&lt;br&gt;Shape Descriptors&lt;br&gt;Geometric&lt;br&gt;Analysis" style="rounded=1;whiteSpace=wrap;html=1;fontSize=8;spacingTop=2;" parent="1" vertex="1">
          <mxGeometry x="760" y="480" width="120" height="50" as="geometry" />
        </mxCell>
        <mxCell id="texture-features" value="&lt;b&gt;TEXTURE-BASED FEATURES&lt;/b&gt;&lt;br&gt;Global Script Characteristics" style="rounded=1;whiteSpace=wrap;html=1;fontSize=9;spacingTop=2;" parent="1" vertex="1">
          <mxGeometry x="120" y="545" width="200" height="35" as="geometry" />
        </mxCell>
        <mxCell id="structural-features" value="&lt;b&gt;STRUCTURAL FEATURES&lt;/b&gt;&lt;br&gt;Statistical Analysis" style="rounded=1;whiteSpace=wrap;html=1;fontSize=9;spacingTop=2;" parent="1" vertex="1">
          <mxGeometry x="340" y="545" width="200" height="35" as="geometry" />
        </mxCell>
        <mxCell id="shape-features" value="&lt;b&gt;SHAPE DESCRIPTORS&lt;/b&gt;&lt;br&gt;Character-level Discrimination" style="rounded=1;whiteSpace=wrap;html=1;fontSize=9;spacingTop=2;" parent="1" vertex="1">
          <mxGeometry x="560" y="545" width="200" height="35" as="geometry" />
        </mxCell>
        <mxCell id="gran-selection" value="&lt;b&gt;GRANULARITY-AWARE FEATURE SELECTION MECHANISMS&lt;/b&gt;&lt;br&gt;Dynamic Selection and Computation of Most Discriminative Features" style="rounded=1;whiteSpace=wrap;html=1;strokeWidth=2;fontSize=11;spacingTop=2;" parent="1" vertex="1">
          <mxGeometry x="200" y="595" width="600" height="35" as="geometry" />
        </mxCell>
        <mxCell id="innovation" value="&lt;b&gt;KEY&lt;br&gt;INNOVATION&lt;/b&gt;&lt;br&gt;Unlike traditional&lt;br&gt;uniform approaches" style="rounded=1;whiteSpace=wrap;html=1;strokeStyle=dashed;fontSize=8;spacingTop=2;" parent="1" vertex="1">
          <mxGeometry x="780" y="595" width="100" height="50" as="geometry" />
        </mxCell>
        <mxCell id="arrow4" style="edgeStyle=orthogonalEdgeStyle;rounded=0;orthogonalLoop=1;jettySize=auto;html=1;strokeWidth=2;spacingTop=2;" parent="1" source="tier2" target="tier3" edge="1">
          <mxGeometry relative="1" as="geometry" />
        </mxCell>
        <mxCell id="tier3" value="TIER 3: DYNAMIC FUSION" style="rounded=1;whiteSpace=wrap;html=1;strokeWidth=3;fontSize=14;fontStyle=1;verticalAlign=top;spacingTop=2;" parent="1" vertex="1">
          <mxGeometry x="200" y="690" width="600" height="120" as="geometry" />
        </mxCell>
        <mxCell id="context-analysis" value="&lt;b&gt;Context Analysis&lt;/b&gt;&lt;br&gt;Intelligent Assessment" style="rounded=1;whiteSpace=wrap;html=1;fontSize=10;spacingTop=2;" parent="1" vertex="1">
          <mxGeometry x="220" y="730" width="150" height="35" as="geometry" />
        </mxCell>
        <mxCell id="feature-combination" value="&lt;b&gt;Feature Combination&lt;/b&gt;&lt;br&gt;Context-based Fusion" style="rounded=1;whiteSpace=wrap;html=1;fontSize=10;spacingTop=2;" parent="1" vertex="1">
          <mxGeometry x="390" y="730" width="150" height="35" as="geometry" />
        </mxCell>
        <mxCell id="weight-assignment" value="&lt;b&gt;Weight Assignment&lt;/b&gt;&lt;br&gt;Adaptive Weighting" style="rounded=1;whiteSpace=wrap;html=1;fontSize=10;spacingTop=2;" parent="1" vertex="1">
          <mxGeometry x="560" y="730" width="150" height="35" as="geometry" />
        </mxCell>
        <mxCell id="intelligent-fusion" value="&lt;b&gt;Intelligent Feature Combination Based on Context&lt;/b&gt;" style="rounded=1;whiteSpace=wrap;html=1;fontSize=10;spacingTop=2;" parent="1" vertex="1">
          <mxGeometry x="350" y="775" width="300" height="25" as="geometry" />
        </mxCell>
        <mxCell id="arrow5" style="edgeStyle=orthogonalEdgeStyle;rounded=0;orthogonalLoop=1;jettySize=auto;html=1;strokeWidth=2;spacingTop=2;" parent="1" source="tier3" target="tier4" edge="1">
          <mxGeometry relative="1" as="geometry" />
        </mxCell>
        <mxCell id="tier4" value="TIER 4: HYBRID CLASSIFICATION" style="rounded=1;whiteSpace=wrap;html=1;strokeWidth=3;fontSize=14;fontStyle=1;verticalAlign=top;spacingTop=2;" parent="1" vertex="1">
          <mxGeometry x="200" y="840" width="600" height="140" as="geometry" />
        </mxCell>
        <mxCell id="script-id" value="&lt;b&gt;Script Identification&lt;/b&gt;&lt;br&gt;Multi-script Recognition&lt;br&gt;Classification Engine" style="rounded=1;whiteSpace=wrap;html=1;fontSize=10;spacingTop=2;" parent="1" vertex="1">
          <mxGeometry x="220" y="880" width="170" height="40" as="geometry" />
        </mxCell>
        <mxCell id="transition-detection" value="&lt;b&gt;Transition Detection&lt;/b&gt;&lt;br&gt;Script Boundary&lt;br&gt;Identification" style="rounded=1;whiteSpace=wrap;html=1;fontSize=10;spacingTop=2;" parent="1" vertex="1">
          <mxGeometry x="410" y="880" width="170" height="40" as="geometry" />
        </mxCell>
        <mxCell id="decision-fusion" value="&lt;b&gt;Decision Fusion&lt;/b&gt;&lt;br&gt;Hybrid Approach&lt;br&gt;Final Decision" style="rounded=1;whiteSpace=wrap;html=1;fontSize=10;spacingTop=2;" parent="1" vertex="1">
          <mxGeometry x="600" y="880" width="170" height="40" as="geometry" />
        </mxCell>
        <mxCell id="final-classification" value="&lt;b&gt;FINAL CLASSIFICATION RESULTS&lt;/b&gt;&lt;br&gt;Multilingual Document Analysis Output" style="rounded=1;whiteSpace=wrap;html=1;strokeWidth=2;fontSize=11;spacingTop=2;" parent="1" vertex="1">
          <mxGeometry x="350" y="935" width="300" height="35" as="geometry" />
        </mxCell>
        <mxCell id="arrow6" style="edgeStyle=orthogonalEdgeStyle;rounded=0;orthogonalLoop=1;jettySize=auto;html=1;strokeWidth=2;spacingTop=2;" parent="1" source="tier4" target="output" edge="1">
          <mxGeometry relative="1" as="geometry" />
        </mxCell>
        <mxCell id="output" value="&lt;b&gt;OUTPUT RESULTS&lt;/b&gt;&lt;br&gt;• Script Identification per Region&lt;br&gt;• Transition Boundaries&lt;br&gt;• Confidence Scores&lt;br&gt;• Granularity-level Analysis" style="rounded=1;whiteSpace=wrap;html=1;strokeWidth=2;fontSize=10;align=center;spacingLeft=10;spacingTop=2;" parent="1" vertex="1">
          <mxGeometry x="350" y="1010" width="300" height="80" as="geometry" />
        </mxCell>
        <mxCell id="tier1-label" value="TIER 1" style="text;html=1;strokeColor=none;fillColor=none;align=left;verticalAlign=middle;whiteSpace=wrap;rounded=0;fontSize=12;fontStyle=1;spacingTop=2;" parent="1" vertex="1">
          <mxGeometry x="50" y="170" width="80" height="20" as="geometry" />
        </mxCell>
        <mxCell id="seg-label" value="SEGMENTATION" style="text;html=1;strokeColor=none;fillColor=none;align=left;verticalAlign=middle;whiteSpace=wrap;rounded=0;fontSize=12;fontStyle=1;spacingTop=2;" parent="1" vertex="1">
          <mxGeometry x="50" y="330" width="120" height="20" as="geometry" />
        </mxCell>
        <mxCell id="tier2-label" value="TIER 2" style="text;html=1;strokeColor=none;fillColor=none;align=left;verticalAlign=middle;whiteSpace=wrap;rounded=0;fontSize=12;fontStyle=1;spacingTop=2;" parent="1" vertex="1">
          <mxGeometry x="50" y="530" width="80" height="20" as="geometry" />
        </mxCell>
        <mxCell id="tier3-label" value="TIER 3" style="text;html=1;strokeColor=none;fillColor=none;align=left;verticalAlign=middle;whiteSpace=wrap;rounded=0;fontSize=12;fontStyle=1;spacingTop=2;" parent="1" vertex="1">
          <mxGeometry x="50" y="740" width="80" height="20" as="geometry" />
        </mxCell>
        <mxCell id="tier4-label" value="TIER 4" style="text;html=1;strokeColor=none;fillColor=none;align=left;verticalAlign=middle;whiteSpace=wrap;rounded=0;fontSize=12;fontStyle=1;spacingTop=2;" parent="1" vertex="1">
          <mxGeometry x="50" y="890" width="80" height="20" as="geometry" />
        </mxCell>
      </root>
    </mxGraphModel>
  </diagram>
</mxfile>
